<svg width="68" height="69" viewBox="0 0 68 69" fill="none" xmlns="http://www.w3.org/2000/svg">
<g filter="url(#filter0_d_1_782)">
<circle cx="32.5001" cy="32.9496" r="20.9496" fill="url(#paint0_linear_1_782)"/>
<circle cx="32.5001" cy="32.9496" r="20.9496" fill="url(#paint1_linear_1_782)"/>
</g>
<path d="M42.5405 22.8601C42.4078 22.7456 42.2465 22.6694 42.0737 22.6398C41.901 22.6102 41.7235 22.6283 41.5602 22.6921L19.8727 31.1794C19.5653 31.299 19.3051 31.5151 19.1312 31.7953C18.9573 32.0755 18.8792 32.4046 18.9085 32.7331C18.9378 33.0616 19.0731 33.3716 19.2939 33.6166C19.5147 33.8615 19.8091 34.0281 20.1327 34.0913L25.7521 35.1946V41.4603C25.751 41.8016 25.8524 42.1354 26.0432 42.4183C26.234 42.7013 26.5054 42.9204 26.8222 43.0473C27.1385 43.1765 27.4864 43.2075 27.8206 43.1363C28.1548 43.0651 28.4598 42.895 28.696 42.6482L31.4056 39.838L35.7044 43.6006C36.0146 43.8757 36.4146 44.0279 36.8291 44.0287C37.0108 44.0285 37.1913 44 37.3642 43.9441C37.6467 43.8545 37.9007 43.6924 38.1011 43.4741C38.3014 43.2557 38.441 42.9887 38.506 42.6995L42.8498 23.8029C42.8886 23.6325 42.8804 23.4547 42.8259 23.2886C42.7714 23.1226 42.6727 22.9744 42.5405 22.8601ZM36.8313 42.3164L27.9833 34.5579L40.718 25.4306L36.8313 42.3164Z" fill="white"/>
<defs>
<filter id="filter0_d_1_782" x="0.26984" y="0.719425" width="67.6835" height="67.6833" filterUnits="userSpaceOnUse" color-interpolation-filters="sRGB">
<feFlood flood-opacity="0" result="BackgroundImageFix"/>
<feColorMatrix in="SourceAlpha" type="matrix" values="0 0 0 0 0 0 0 0 0 0 0 0 0 0 0 0 0 0 127 0" result="hardAlpha"/>
<feOffset dx="1.61151" dy="1.61151"/>
<feGaussianBlur stdDeviation="6.44604"/>
<feComposite in2="hardAlpha" operator="out"/>
<feColorMatrix type="matrix" values="0 0 0 0 0.094184 0 0 0 0 0.305047 0 0 0 0 0.904167 0 0 0 0.25 0"/>
<feBlend mode="normal" in2="BackgroundImageFix" result="effect1_dropShadow_1_782"/>
<feBlend mode="normal" in="SourceGraphic" in2="effect1_dropShadow_1_782" result="shape"/>
</filter>
<linearGradient id="paint0_linear_1_782" x1="84.8742" y1="33.9006" x2="25.8099" y2="55.1104" gradientUnits="userSpaceOnUse">
<stop stop-color="#FFAA42"/>
<stop offset="0.473958" stop-color="#FF7043"/>
<stop offset="1" stop-color="#ED65D8"/>
</linearGradient>
<linearGradient id="paint1_linear_1_782" x1="45.5614" y1="11.9999" x2="6.72262" y2="24.2899" gradientUnits="userSpaceOnUse">
<stop stop-color="#FB0001"/>
<stop offset="1" stop-color="#FF8762"/>
</linearGradient>
</defs>
</svg>
